<svg version="1.1" xmlns="http://www.w3.org/2000/svg" viewBox="0 0 1024 1024" fill="#8fb4dd">
<path opacity="1.000000" stroke="none" 
	d="
M200.531342,1.000000 
	C196.909088,3.864147 191.967468,2.755186 187.561829,3.267557 
	C148.534409,7.806402 113.669754,22.153780 82.766411,46.281681 
	C48.245922,73.233681 24.247623,107.610558 10.838387,149.265564 
	C7.641681,159.195969 4.874774,169.254700 3.777182,179.806778 
	C3.280120,184.585449 2.989548,189.616806 1.263436,194.672577 
	C1.000000,130.405197 1.000000,65.810387 1.000000,1.000000 
	C67.354073,1.000000 133.708374,1.000000 200.531342,1.000000 
z"/>
<path opacity="1.000000" stroke="none" 
	d="
M1.000000,831.468628 
	C3.799422,836.134460 2.921374,842.006653 3.693400,847.432800 
	C6.351717,866.116821 12.556085,883.541565 20.041111,900.639160 
	C27.973560,918.758728 38.744732,935.188538 51.518303,950.151672 
	C70.039505,971.847656 92.176109,989.207520 117.697723,1002.084412 
	C140.966309,1013.824402 165.822906,1020.207886 191.542892,1023.581543 
	C194.481155,1023.966980 197.552109,1022.947266 200.692032,1024.713135 
	C134.407425,1025.000000 67.814842,1025.000000 1.000000,1025.000000 
	C1.000000,960.645935 1.000000,896.291626 1.000000,831.468628 
z"/>
<path opacity="1.000000" stroke="none" 
	d="
M825.468628,1025.000000 
	C829.135437,1022.150574 834.045837,1023.417725 838.500854,1022.886902 
	C880.544067,1017.877014 917.666626,1001.650635 949.920105,974.455322 
	C982.697632,946.817993 1004.833435,912.173279 1017.069946,871.029358 
	C1020.830505,858.384888 1022.289673,845.440491 1024.678711,832.273804 
	C1025.000000,896.261658 1025.000000,960.523254 1025.000000,1025.000000 
	C958.645935,1025.000000 892.291626,1025.000000 825.468628,1025.000000 
z"/>
<path opacity="1.000000" stroke="none" 
	d="
M1025.000000,194.531342 
	C1022.839539,188.212433 1022.332092,181.103714 1021.445129,174.127106 
	C1019.640442,159.930679 1014.730896,146.709961 1009.629700,133.557205 
	C1002.475037,115.110008 992.278748,98.333214 980.097595,82.785965 
	C963.307800,61.356701 943.080627,43.900185 919.567688,30.099966 
	C898.350464,17.647127 875.545715,9.682586 851.547485,4.997452 
	C843.278992,3.383184 834.809875,2.795856 826.216187,1.369706 
	C892.259460,1.000000 958.518860,1.000000 1025.000000,1.000000 
	C1025.000000,65.354057 1025.000000,129.708374 1025.000000,194.531342 
z"/>
<path opacity="1.000000" stroke="none" 
	d="
M390.127991,659.871338 
	C349.246643,618.942871 308.641479,578.237976 267.926025,537.643677 
	C264.871155,534.597900 264.712646,532.772034 267.883270,529.611511 
	C301.402802,496.198669 334.771271,462.634308 368.180878,429.111206 
	C373.584381,423.689331 373.589630,423.217346 368.349274,417.960938 
	C347.054474,396.600800 325.769104,375.231262 304.458832,353.886627 
	C299.712494,349.132660 298.640076,349.167694 293.976196,353.947327 
	C240.558853,408.690186 187.146378,463.437805 133.730194,518.181824 
	C120.230621,532.016968 106.647125,545.771545 93.280441,559.733826 
	C90.523849,562.613220 88.874641,562.660156 86.081841,559.798340 
	C75.491180,548.946045 64.759613,538.225159 53.850323,527.693909 
	C50.830151,524.778381 51.428596,523.058777 54.048382,520.434814 
	C93.961342,480.459290 133.848755,440.457977 173.639343,400.360626 
	C214.721832,358.961456 255.710907,317.469482 296.673218,275.951416 
	C299.462677,273.124115 301.337677,272.738953 304.388123,275.802246 
	C337.897888,309.453125 371.542236,342.970032 405.141602,376.531708 
	C410.518494,381.902557 410.483368,381.906128 415.657288,376.642731 
	C447.313049,344.439758 479.008392,312.275574 510.587677,279.997803 
	C513.680481,276.836609 515.320862,278.684265 517.437378,280.850281 
	C541.775818,305.758514 566.128479,330.652863 590.505188,355.523651 
	C598.320618,363.497498 606.437073,371.189728 613.986694,379.405212 
	C617.790588,383.544586 620.127686,382.060913 623.253967,378.911621 
	C644.387085,357.623138 665.612366,336.426178 686.808533,315.200287 
	C699.875671,302.114807 713.023071,289.107849 725.950378,275.885681 
	C728.798218,272.972931 730.449585,273.272980 733.173767,276.016052 
	C784.255920,327.452271 835.405579,378.821472 886.591125,430.154816 
	C916.469543,460.119507 946.382324,490.050598 976.434875,519.840149 
	C979.882324,523.257507 979.915405,525.215759 976.375793,528.535095 
	C965.560120,538.677856 954.991943,549.090210 944.520142,559.589966 
	C941.691467,562.426270 939.866943,562.800110 936.870850,559.716309 
	C890.191956,511.670776 843.407043,463.728241 796.654907,415.753815 
	C776.304260,394.871124 755.983582,373.959290 735.622986,353.086426 
	C731.639282,349.002472 729.587463,348.925262 725.553711,352.957550 
	C703.750122,374.753387 682.046509,396.649475 660.184021,418.385925 
	C657.373474,421.180237 657.506226,423.144226 660.133850,425.779449 
	C677.310913,443.006683 694.396545,460.325073 711.560547,477.565399 
	C728.137390,494.216003 744.708069,510.874084 761.441711,527.366272 
	C764.467041,530.348022 764.806946,532.120728 761.576111,535.333374 
	C733.690308,563.061768 705.963562,590.950317 678.232361,618.833801 
	C626.062378,671.290222 573.911072,723.765198 521.778442,776.258728 
	C514.061890,784.028687 514.179321,784.044434 506.277924,776.129089 
	C467.660278,737.444153 429.013336,698.788513 390.127991,659.871338 
M383.595306,576.904541 
	C425.604492,618.997131 467.611176,661.092224 509.626160,703.179016 
	C514.530090,708.091309 514.516968,708.035889 519.274841,703.231873 
	C556.203308,665.945251 593.141602,628.668335 630.086548,591.398010 
	C647.446167,573.885498 664.835327,556.402344 682.193542,538.888489 
	C687.648071,533.385071 687.648376,532.894897 682.162537,527.332031 
	C674.910339,519.977966 667.607056,512.674438 660.330078,505.344818 
	C613.844299,458.522919 567.363342,411.696228 520.870911,364.880951 
	C513.750244,357.710907 513.673279,357.721741 506.776520,364.699951 
	C480.778900,391.004547 454.789642,417.317413 428.798157,443.628082 
	C401.047546,471.719482 373.300629,499.814514 345.545654,527.901611 
	C340.200867,533.310425 340.153503,533.330566 345.327789,538.534119 
	C357.898468,551.175964 370.503662,563.783447 383.595306,576.904541 
z"/>
</svg>